<svg xmlns="http://www.w3.org/2000/svg" version="1.1" xmlns:xlink="http://www.w3.org/1999/xlink" xmlns:svgjs="http://svgjs.dev/svgjs" width="1500" height="1500" viewBox="0 0 1500 1500"><rect width="1500" height="1500" fill="#000000"></rect><g transform="matrix(0.6666666666666666,0,0,0.6666666666666666,249.39393939393932,570.1884034614467)"><svg viewBox="0 0 396 142" data-background-color="#89939e" preserveAspectRatio="xMidYMid meet" height="537" width="1500" xmlns="http://www.w3.org/2000/svg" xmlns:xlink="http://www.w3.org/1999/xlink"><g id="tight-bounds" transform="matrix(1,0,0,1,0.24000000000003752,0.32191818009656004)"><svg viewBox="0 0 395.5199999999999 141.35584554539545" height="141.35584554539545" width="395.5199999999999"><g><svg viewBox="0 0 395.52000000000004 141.35584554539548" height="141.35584554539545" width="395.5199999999999"><g transform="matrix(1,0,0,1,0,72.88053484596155)"><svg viewBox="0 0 395.52000000000004 68.47531069943393" height="68.47531069943393" width="395.52000000000004"><g id="textblocktransform"><svg viewBox="0 0 395.52000000000004 68.47531069943393" height="68.47531069943393" width="395.52000000000004" id="textblock"><g><svg viewBox="0 0 395.52000000000004 68.47531069943393" height="68.47531069943393" width="395.52000000000004"><g transform="matrix(1,0,0,1,0,0)"><svg width="395.52000000000004" viewBox="-0.1731400000000054 -19.114234267222315 359.49635 62.238636010490694" height="68.47531069943393" data-palette-color="#000000"><path d="M26.298-15.779l-1.512 3.811c-0.742-0.36-1.52-0.71-2.335-1.05v0c-0.716-0.32-1.542-0.639-2.476-0.957-0.936-0.312-1.926-0.577-2.97-0.795v0c-2.408-0.504-4.21-0.499-5.407 0.013-1.192 0.52-1.947 1.544-2.267 3.071v0c-0.22 1.214 0.004 2.323 0.673 3.328 0.675 1.006 1.576 1.992 2.701 2.956 1.118 0.97 2.365 1.946 3.74 2.928 1.381 0.984 2.614 2.042 3.698 3.174 1.092 1.128 1.948 2.359 2.568 3.694 0.62 1.335 0.756 2.835 0.408 4.499v0c-0.401 1.918-1.139 3.378-2.214 4.38-1.073 0.995-2.314 1.685-3.723 2.071-1.409 0.386-2.894 0.535-4.456 0.447-1.562-0.088-3.024-0.275-4.388-0.56v0c-1.305-0.273-2.476-0.603-3.512-0.99-1.043-0.388-1.935-0.762-2.677-1.122v0c-0.866-0.42-1.64-0.854-2.322-1.304v0l1.796-3.751c0.682 0.483 1.424 0.928 2.224 1.333v0c0.709 0.353 1.51 0.708 2.403 1.065 0.892 0.357 1.861 0.645 2.905 0.863v0c1.266 0.265 2.448 0.427 3.545 0.487 1.091 0.058 2.066-0.011 2.925-0.206 0.852-0.196 1.561-0.542 2.127-1.036 0.56-0.496 0.928-1.165 1.104-2.007v0c0.234-1.279 0.036-2.4-0.594-3.363-0.628-0.969-1.528-1.958-2.7-2.965-1.165-1.007-2.433-2.011-3.803-3.013-1.371-1.002-2.597-2.072-3.681-3.212-1.088-1.147-1.937-2.414-2.545-3.802-0.61-1.381-0.728-2.969-0.352-4.763v0c0.218-1.044 0.609-2.032 1.171-2.963 0.571-0.936 1.372-1.705 2.403-2.306 1.025-0.603 2.28-1.001 3.765-1.195 1.486-0.2 3.253-0.086 5.302 0.343v0c1.175 0.246 2.279 0.535 3.313 0.867 1.033 0.339 1.927 0.655 2.682 0.949v0c0.879 0.354 1.706 0.715 2.481 1.081zM41.829 14.993l0.996-5.602c-0.662-0.084-1.292-0.162-1.888-0.234-0.597-0.072-1.185-0.133-1.766-0.181-0.586-0.057-1.111-0.092-1.575-0.108v0c-2.415-0.125-4.178 0.094-5.286 0.656-1.116 0.567-1.796 1.536-2.041 2.907v0c-0.204 1.149-0.006 2.071 0.595 2.767 0.6 0.702 1.474 1.156 2.623 1.36v0c1.575 0.28 3.025 0.257 4.349-0.07 1.323-0.32 2.654-0.818 3.993-1.495zM41.171 21.214l-0.001-2.793c-1.7 0.612-3.261 1.073-4.685 1.382-1.422 0.303-2.904 0.317-4.446 0.042v0c-2.192-0.39-3.841-1.231-4.944-2.524-1.104-1.293-1.437-3.17-1-5.631v0c0.226-1.273 0.752-2.328 1.577-3.163 0.819-0.836 1.82-1.478 3.003-1.924 1.176-0.448 2.466-0.733 3.87-0.857 1.41-0.122 2.826-0.107 4.248 0.044v0c0.602 0.039 1.384 0.117 2.345 0.234 0.96 0.123 1.705 0.215 2.236 0.276v0c0.204-1.149 0.353-2.178 0.448-3.09 0.094-0.911 0.034-1.717-0.18-2.418-0.215-0.695-0.615-1.264-1.2-1.707-0.578-0.441-1.455-0.766-2.63-0.975v0c-0.952-0.169-1.881-0.273-2.788-0.313-0.906-0.046-1.712-0.064-2.418-0.053v0c-0.85 0.018-1.637 0.065-2.361 0.139v0l-0.186-3.527c0.855-0.051 1.774-0.074 2.755-0.069v0c0.843-0.019 1.817 0.008 2.921 0.082 1.103 0.081 2.275 0.232 3.515 0.452v0c1.674 0.297 2.982 0.784 3.925 1.459 0.943 0.675 1.629 1.481 2.059 2.418 0.423 0.935 0.645 1.953 0.666 3.053 0.026 1.108-0.065 2.25-0.274 3.425v0l-2.096 11.796c-0.082 0.459-0.161 0.943-0.237 1.45-0.07 0.509-0.126 1.014-0.168 1.514-0.035 0.502-0.066 1.021-0.094 1.558v0zM52.048 22.572l3.158-20.821c0.115-0.758 0.212-1.954 0.291-3.587v0l3.733 0.06-0.15 3.659 0.049 0.007c0.702-0.669 1.375-1.238 2.019-1.706 0.645-0.475 1.303-0.875 1.972-1.198 0.675-0.316 1.289-0.432 1.843-0.347v0c0.763 0.082 1.805 0.324 3.126 0.727v0l-1.465 3.661c-1.058-0.363-1.803-0.56-2.237-0.592v0c-0.554-0.084-1.184 0.09-1.89 0.523-0.706 0.432-1.335 0.91-1.886 1.433v0c-0.703 0.635-1.401 1.369-2.094 2.201v0l-2.514 16.58zM83.204 20.918l0.716-5.645c-0.666-0.051-1.298-0.097-1.897-0.14-0.599-0.042-1.19-0.074-1.773-0.094-0.588-0.028-1.114-0.037-1.579-0.029v0c-2.419-0.004-4.168 0.301-5.247 0.918-1.087 0.622-1.718 1.623-1.893 3.005v0c-0.147 1.157 0.097 2.069 0.732 2.734 0.634 0.672 1.529 1.081 2.687 1.228v0c1.587 0.201 3.034 0.106 4.34-0.286 1.306-0.385 2.61-0.949 3.914-1.691zM82.856 27.163l-0.14-2.789c-1.667 0.696-3.204 1.233-4.61 1.613-1.405 0.373-2.884 0.461-4.438 0.263v0c-2.209-0.28-3.897-1.039-5.064-2.275-1.167-1.237-1.593-3.095-1.279-5.575v0c0.163-1.283 0.636-2.362 1.418-3.237 0.776-0.876 1.744-1.566 2.904-2.072 1.153-0.506 2.427-0.855 3.822-1.047 1.402-0.192 2.817-0.248 4.245-0.167v0c0.604 0.009 1.388 0.048 2.354 0.117 0.965 0.075 1.714 0.13 2.247 0.164v0c0.147-1.157 0.245-2.193 0.294-3.108 0.049-0.914-0.051-1.717-0.3-2.407-0.249-0.683-0.677-1.232-1.283-1.644-0.6-0.412-1.491-0.693-2.676-0.844v0c-0.959-0.122-1.892-0.18-2.8-0.173-0.907-0.001-1.713 0.021-2.417 0.066v0c-0.848 0.06-1.631 0.146-2.351 0.256v0l-0.361-3.513c0.852-0.094 1.768-0.162 2.748-0.206v0c0.841-0.061 1.815-0.082 2.921-0.063 1.106 0.026 2.283 0.118 3.533 0.277v0c1.686 0.214 3.017 0.635 3.993 1.262 0.975 0.628 1.701 1.398 2.176 2.312 0.469 0.913 0.741 1.918 0.817 3.017 0.082 1.106 0.047 2.25-0.103 3.435v0l-1.507 11.884c-0.059 0.463-0.114 0.95-0.165 1.461-0.045 0.512-0.075 1.019-0.092 1.521-0.01 0.503-0.015 1.023-0.017 1.56v0zM93.847 27.968l1.93-20.017c0.1-0.694 0.163-2.208 0.187-4.543v0l3.731-0.143 0.241 3.228c1.053-0.568 2.091-1.051 3.113-1.448 1.03-0.403 2.075-0.748 3.134-1.034 1.065-0.279 2.079-0.372 3.041-0.279v0c1.354 0.131 2.473 0.396 3.359 0.796 0.878 0.406 1.564 1.001 2.058 1.786 0.488 0.777 0.8 1.775 0.937 2.993 0.13 1.218 0.11 2.72-0.062 4.505v0l-1.552 16.096-3.972-0.383 1.509-15.648c0.096-0.995 0.165-1.883 0.206-2.662 0.042-0.78-0.034-1.457-0.226-2.031-0.2-0.568-0.541-1.027-1.023-1.375-0.482-0.348-1.188-0.567-2.116-0.656v0c-0.863-0.083-1.794 0.021-2.793 0.313-0.992 0.286-1.977 0.633-2.954 1.042-0.977 0.408-1.975 0.898-2.995 1.469v0l-1.771 18.375zM142.565 7.174l-1.695 26.846c-0.077 1.224-0.282 2.41-0.615 3.559-0.339 1.141-0.914 2.147-1.724 3.017-0.803 0.864-1.893 1.527-3.272 1.988-1.379 0.467-3.166 0.632-5.362 0.493v0c-1.388-0.121-2.594-0.281-3.617-0.479-1.023-0.198-1.989-0.453-2.897-0.764-0.916-0.305-1.746-0.648-2.49-1.029v0l1.268-3.417c1.262 0.641 2.556 1.153 3.88 1.538 1.325 0.384 2.52 0.61 3.585 0.677v0c1.158 0.073 2.176 0.021 3.056-0.158 0.88-0.178 1.626-0.522 2.239-1.031 0.613-0.509 1.091-1.204 1.434-2.084 0.336-0.881 0.546-1.983 0.63-3.306v0l0.23-3.643c-0.728 0.422-1.477 0.802-2.246 1.14-0.769 0.332-1.585 0.605-2.447 0.818-0.868 0.212-1.699 0.294-2.49 0.243v0c-3.087-0.195-5.46-1.437-7.119-3.726-1.652-2.289-2.342-5.592-2.07-9.91v0c0.157-2.488 0.678-4.546 1.562-6.174 0.884-1.627 1.958-2.919 3.221-3.874 1.256-0.949 2.613-1.605 4.072-1.968 1.459-0.355 2.833-0.492 4.124-0.41v0c1.697 0.107 3.241 0.345 4.634 0.713 1.392 0.375 2.762 0.689 4.109 0.941zM130.701 28.128v0c0.725 0.046 1.479-0.04 2.261-0.258 0.782-0.218 1.54-0.487 2.275-0.809 0.735-0.321 1.468-0.709 2.198-1.163v0l1.003-15.889c-0.393-0.125-0.848-0.271-1.365-0.437v0c-0.462-0.096-0.989-0.203-1.583-0.32-0.593-0.124-1.223-0.207-1.888-0.249v0c-1.391-0.088-2.601 0.086-3.63 0.522-1.03 0.436-1.894 1.066-2.594 1.89-0.7 0.824-1.236 1.806-1.609 2.945-0.373 1.145-0.6 2.364-0.682 3.654v0c-0.074 1.164-0.024 2.336 0.149 3.516 0.18 1.174 0.503 2.243 0.97 3.208 0.473 0.965 1.075 1.755 1.804 2.368 0.729 0.614 1.626 0.954 2.691 1.022zM161.007 32.273l0.568-34.026 9.079 0.152c3.593 0.06 6.185 0.767 7.775 2.12 1.591 1.36 2.364 3.403 2.318 6.129v0c-0.021 1.266-0.213 2.36-0.574 3.281-0.362 0.927-0.765 1.704-1.209 2.33v0c-0.512 0.725-1.073 1.349-1.682 1.873v0c0.795 0.313 1.538 0.706 2.231 1.177 0.685 0.478 1.289 1.055 1.811 1.731 0.522 0.675 0.932 1.472 1.23 2.39 0.305 0.919 0.447 1.994 0.427 3.228v0c-0.023 1.366-0.228 2.653-0.615 3.86-0.387 1.207-1.021 2.253-1.903 3.139-0.875 0.879-2.033 1.573-3.475 2.082-1.442 0.509-3.226 0.746-5.352 0.711v0zM165.702 2.057l-0.184 11.028 8.339 0.139c0.473-0.359 0.894-0.835 1.264-1.429v0c0.342-0.494 0.652-1.113 0.931-1.854 0.279-0.742 0.428-1.646 0.445-2.713v0c0.033-1.96-0.452-3.291-1.453-3.995-1.002-0.697-2.419-1.061-4.253-1.091v0zM165.46 16.575l-0.201 12.028 6.789 0.113c2.193 0.037 3.849-0.502 4.968-1.617 1.119-1.115 1.694-2.619 1.725-4.512v0c0.014-0.833-0.083-1.602-0.291-2.305-0.202-0.697-0.565-1.31-1.09-1.838-0.525-0.522-1.234-0.941-2.129-1.256-0.888-0.315-1.999-0.483-3.332-0.506v0zM203.198 26.425l-0.096-5.689c-0.666 0.045-1.299 0.089-1.898 0.131-0.599 0.043-1.189 0.097-1.767 0.16-0.586 0.057-1.108 0.122-1.567 0.197v0c-2.395 0.34-4.082 0.892-5.063 1.655-0.987 0.77-1.469 1.852-1.446 3.245v0c0.02 1.167 0.391 2.034 1.114 2.602 0.723 0.575 1.668 0.852 2.835 0.832v0c1.6-0.027 3.018-0.328 4.255-0.902 1.237-0.568 2.448-1.311 3.633-2.231zM203.743 32.656l-0.536-2.741c-1.551 0.926-2.996 1.677-4.333 2.253-1.337 0.569-2.789 0.867-4.356 0.894v0c-2.226 0.037-4.005-0.473-5.336-1.531-1.331-1.058-2.018-2.836-2.06-5.336v0c-0.022-1.293 0.292-2.429 0.943-3.406 0.644-0.978 1.503-1.799 2.578-2.464 1.069-0.665 2.28-1.192 3.634-1.581 1.36-0.39 2.753-0.646 4.178-0.771v0c0.599-0.077 1.381-0.15 2.347-0.219 0.966-0.063 1.715-0.116 2.247-0.158v0c-0.02-1.167-0.07-2.206-0.152-3.118-0.082-0.912-0.295-1.692-0.64-2.339-0.344-0.641-0.846-1.123-1.504-1.445-0.652-0.322-1.575-0.474-2.768-0.454v0c-0.967 0.016-1.899 0.092-2.797 0.227-0.898 0.128-1.692 0.265-2.383 0.411v0c-0.83 0.181-1.594 0.377-2.291 0.588v0l-0.858-3.426c0.83-0.214 1.727-0.412 2.691-0.595v0c0.824-0.181 1.785-0.34 2.882-0.479 1.098-0.132 2.277-0.208 3.537-0.229v0c1.7-0.029 3.077 0.198 4.132 0.68 1.055 0.482 1.883 1.142 2.484 1.979 0.594 0.837 1.007 1.793 1.238 2.869 0.238 1.083 0.367 2.221 0.388 3.414v0l0.201 11.978c0.008 0.467 0.023 0.956 0.045 1.47 0.029 0.513 0.07 1.019 0.126 1.518 0.062 0.499 0.13 1.015 0.206 1.547v0zM214.576 31.926l-0.953-25.132 3.98-0.601 0.97 25.581zM212.702-0.316v0c-0.029-0.759 0.207-1.409 0.707-1.949 0.493-0.532 1.123-0.813 1.889-0.842v0c0.799-0.03 1.482 0.201 2.048 0.693 0.566 0.499 0.863 1.128 0.892 1.888v0c0.029 0.766-0.22 1.416-0.746 1.949-0.527 0.54-1.19 0.826-1.989 0.856v0c-0.766 0.029-1.416-0.206-1.949-0.706-0.539-0.493-0.823-1.123-0.852-1.889zM226.071 31.367l-1.212-20.073c-0.009-0.701-0.183-2.206-0.523-4.517v0l3.664-0.722 0.741 3.151c0.951-0.725 1.901-1.364 2.85-1.915 0.955-0.559 1.933-1.062 2.934-1.509 1.009-0.442 1.995-0.691 2.96-0.75v0c1.358-0.082 2.505 0.006 3.442 0.263 0.931 0.264 1.701 0.746 2.311 1.443 0.603 0.692 1.067 1.629 1.392 2.812 0.319 1.183 0.532 2.669 0.64 4.459v0l0.974 16.141-3.983 0.24-0.947-15.691c-0.06-0.998-0.13-1.886-0.21-2.662-0.08-0.777-0.26-1.434-0.54-1.971-0.286-0.53-0.694-0.93-1.224-1.199-0.53-0.269-1.262-0.375-2.194-0.318v0c-0.865 0.052-1.768 0.3-2.71 0.744-0.935 0.437-1.854 0.933-2.755 1.489-0.902 0.555-1.811 1.195-2.729 1.918v0l1.112 18.426zM267.037 22.354l-0.528-5.666c-0.661 0.095-1.288 0.187-1.882 0.276-0.594 0.089-1.178 0.187-1.751 0.294-0.58 0.101-1.096 0.206-1.547 0.315v0c-2.362 0.521-4.003 1.2-4.922 2.036-0.926 0.843-1.324 1.958-1.195 3.345v0c0.108 1.162 0.544 1.998 1.309 2.509 0.765 0.518 1.728 0.723 2.889 0.615v0c1.593-0.148 2.985-0.556 4.175-1.223 1.191-0.66 2.341-1.494 3.452-2.501zM268.055 28.526l-0.744-2.693c-1.476 1.042-2.859 1.9-4.148 2.577-1.29 0.669-2.715 1.077-4.275 1.222v0c-2.217 0.207-4.03-0.167-5.438-1.121-1.408-0.953-2.228-2.675-2.46-5.164v0c-0.12-1.288 0.107-2.444 0.681-3.468 0.567-1.024 1.362-1.908 2.384-2.652 1.015-0.744 2.183-1.362 3.504-1.854 1.327-0.492 2.696-0.854 4.107-1.085v0c0.591-0.122 1.366-0.255 2.323-0.398 0.958-0.136 1.701-0.246 2.229-0.328v0c-0.108-1.162-0.238-2.194-0.389-3.097-0.151-0.903-0.423-1.665-0.816-2.284-0.392-0.613-0.929-1.055-1.61-1.327-0.675-0.272-1.606-0.352-2.794-0.241v0c-0.962 0.09-1.886 0.236-2.772 0.439-0.886 0.196-1.667 0.393-2.345 0.59v0c-0.814 0.243-1.561 0.497-2.239 0.761v0l-1.116-3.351c0.811-0.276 1.69-0.543 2.638-0.798v0c0.808-0.243 1.754-0.475 2.837-0.697 1.085-0.215 2.254-0.381 3.509-0.497v0c1.693-0.158 3.083-0.036 4.172 0.364 1.089 0.401 1.964 0.995 2.627 1.784 0.656 0.789 1.14 1.712 1.453 2.767 0.32 1.062 0.535 2.186 0.646 3.375v0l1.112 11.928c0.043 0.465 0.095 0.952 0.156 1.462 0.068 0.509 0.148 1.011 0.241 1.504 0.1 0.493 0.207 1.002 0.323 1.527v0zM278.79 26.979l-4.219-37.142 3.923-0.898 4.27 37.588zM294.327 24.907l-10.35-23.85 4.145-0.608 4.553 10.783c0.403 0.911 0.792 1.888 1.168 2.932 0.368 1.038 0.718 2.004 1.052 2.898v0c0.357 1.053 0.728 2.09 1.113 3.111v0l0.049-0.007c0.076-1.089 0.183-2.196 0.322-3.322v0c0.128-0.962 0.263-1.999 0.403-3.111 0.139-1.119 0.287-2.175 0.445-3.168v0l1.858-11.724 5.284-0.775 4.454 10.798c0.37 0.916 0.759 1.893 1.167 2.932 0.401 1.033 0.751 1.999 1.052 2.898v0c0.357 1.053 0.711 2.092 1.064 3.118v0l0.049-0.007c0.137-1.132 0.291-2.263 0.463-3.393v0c0.128-0.962 0.276-2.001 0.442-3.117 0.172-1.124 0.339-2.166 0.502-3.126v0l1.819-11.718 4.096-0.601-4.511 26.03-4.393 0.645-5.55-13.104c-0.514-1.205-0.949-2.293-1.307-3.264-0.365-0.971-0.68-1.79-0.947-2.459v0c-0.286-0.8-0.541-1.504-0.765-2.112v0l-0.099 0.015c-0.04 0.646-0.099 1.396-0.175 2.249v0c-0.057 0.716-0.16 1.597-0.31 2.643-0.15 1.046-0.314 2.222-0.493 3.529v0l-2.197 14.24zM340.175 11.621l-1.024-5.597c-0.65 0.153-1.267 0.299-1.851 0.44-0.584 0.141-1.157 0.289-1.718 0.447-0.569 0.151-1.073 0.301-1.514 0.449v0c-2.307 0.727-3.882 1.547-4.724 2.46-0.848 0.921-1.147 2.067-0.896 3.438v0c0.21 1.148 0.718 1.943 1.523 2.384 0.807 0.449 1.785 0.568 2.933 0.359v0c1.574-0.288 2.924-0.816 4.051-1.585 1.128-0.762 2.201-1.694 3.22-2.795zM341.73 17.68l-0.977-2.617c-1.379 1.167-2.681 2.144-3.906 2.931-1.226 0.78-2.61 1.311-4.151 1.593v0c-2.19 0.401-4.029 0.188-5.515-0.639-1.486-0.826-2.454-2.469-2.904-4.927v0c-0.233-1.272-0.108-2.444 0.374-3.515 0.475-1.07 1.189-2.02 2.141-2.852 0.946-0.83 2.055-1.548 3.327-2.154 1.278-0.607 2.61-1.087 3.996-1.442v0c0.578-0.174 1.338-0.373 2.279-0.6 0.943-0.22 1.673-0.394 2.192-0.523v0c-0.21-1.148-0.43-2.165-0.66-3.051-0.23-0.886-0.568-1.621-1.013-2.203-0.444-0.576-1.018-0.969-1.72-1.18-0.696-0.212-1.631-0.21-2.805 0.004v0c-0.951 0.174-1.858 0.401-2.722 0.681-0.865 0.273-1.626 0.538-2.284 0.794v0c-0.79 0.314-1.511 0.632-2.164 0.955v0l-1.406-3.24c0.784-0.347 1.636-0.689 2.557-1.027v0c0.783-0.313 1.705-0.627 2.766-0.943 1.062-0.309 2.212-0.577 3.451-0.804v0c1.672-0.306 3.068-0.307 4.188-0.003 1.12 0.304 2.044 0.819 2.774 1.546 0.723 0.729 1.286 1.605 1.69 2.629 0.412 1.029 0.725 2.131 0.94 3.305v0l2.155 11.784c0.084 0.459 0.179 0.94 0.284 1.443 0.112 0.501 0.236 0.994 0.372 1.477 0.142 0.482 0.294 0.98 0.456 1.492v0zM352.397 15.154l-4.313-20.613c-0.157-0.75-0.484-1.905-0.98-3.463v0l3.519-1.247 1.137 3.481 0.049-0.011c0.424-0.872 0.856-1.64 1.296-2.304 0.439-0.671 0.915-1.274 1.429-1.811 0.522-0.532 1.057-0.855 1.606-0.969v0c0.744-0.19 1.805-0.326 3.183-0.411v0l-0.094 3.943c-1.118 0.029-1.885 0.105-2.303 0.227v0c-0.548 0.115-1.078 0.498-1.588 1.149-0.511 0.652-0.933 1.319-1.267 2.002v0c-0.437 0.841-0.835 1.772-1.193 2.794v0l3.434 16.414z" opacity="1" transform="matrix(1,0,0,1,0,0)" fill="#ffffff" class="wordmark-text-0" data-fill-palette-color="primary" id="text-0"></path></svg></g></svg></g></svg></g></svg></g><g transform="matrix(1,0,0,1,159.93894038333556,0)"><svg viewBox="0 0 75.6421192333289 68.47531069943393" height="68.47531069943393" width="75.6421192333289"><g><svg xmlns="http://www.w3.org/2000/svg" xmlns:xlink="http://www.w3.org/1999/xlink" version="1.1" x="0" y="0" viewBox="6.566043613816004 10.188848189803814 86.94927075765324 78.71115181019618" enable-background="new 0 0 100 100" xml:space="preserve" height="68.47531069943393" width="75.6421192333289" class="icon-icon-0" data-fill-palette-color="accent" id="icon-0"><path d="M66.1 68.9C63.8 68.9 63 66.1 62.5 64.4 62.4 64.1 62.3 63.7 62.2 63.5 62.1 63.1 61.9 62.7 61.8 62.2 61.5 62.4 61.2 62.5 61 62.6 61 62.7 60.9 62.8 60.9 62.9 60.7 63.4 60.3 63.7 59.7 63.9 58.9 64.1 58.4 63.9 58 63.7 57.7 63.5 57.5 63.2 57.4 62.9 56.6 63.4 56 63.3 55.7 63.1 54.9 62.7 54.6 61.8 54.4 60.8L54.3 60.9C53.9 61.2 53.5 61.5 53.2 61.7 52.7 62 52.1 61.9 51.8 61.4S51.6 60.3 52.1 60C52.4 59.8 52.8 59.5 53.1 59.3 53.6 58.9 54.2 58.5 54.8 58.2 55.1 58 55.5 58.1 55.8 58.2 56.1 58.4 56.3 58.7 56.3 59 56.3 60.1 56.4 60.7 56.5 61 56.6 60.8 56.6 60.6 56.6 60.5 56.7 60 56.8 59.4 57.2 59 57.5 58.7 57.8 58.6 58.2 58.7S58.8 59.1 58.9 59.4V59.5C59 59.4 59.2 59.3 59.3 59.3 59.8 59.2 60.3 59.4 60.5 59.9 60.6 60.1 60.6 60.3 60.7 60.5 60.8 60.1 60.4 59.1 60.2 58.6 60.1 58.4 60 58.2 60 58.1 59.8 57.7 60 57.2 60.4 56.9S61.3 56.7 61.7 57C62.8 58.1 63.3 59.8 63.6 61.4 63.7 62 63.9 62.6 64 63 64.1 63.3 64.2 63.7 64.3 64 64.7 65.3 65 66.2 65.4 66.6 65.2 65.2 64.8 63.8 64.5 62.5 64.3 61.7 64.2 60.9 64 60.1 63.7 58.2 63.4 56.3 62 55.2 60.9 54.4 58.9 54 57.4 54.4 56.6 54.6 56 55.3 55.3 56.1 54.8 56.7 54.3 57.3 53.5 57.8 53.3 58.2 52.9 58.5 52.5 58.5H52.3C51.8 58.6 51.3 58.3 51.2 57.8S51.3 56.8 51.8 56.6C52.6 56.3 53.2 55.6 53.8 54.8 54.6 53.9 55.5 52.8 57 52.4 59.1 51.9 61.8 52.4 63.4 53.6 65.4 55.2 65.8 57.6 66.1 59.7 66.2 60.5 66.3 61.2 66.5 61.9 67 63.7 67.5 65.7 67.7 67.8 67.7 68.3 67.4 68.7 66.9 68.8 66.6 68.9 66.3 68.9 66.1 68.9" fill="#ffffff" data-fill-palette-color="accent"></path><path d="M34.1 29.3C33.6 29.3 33.2 29.2 32.8 28.7 32.3 28.2 32.1 27.1 31.8 25.6 31.7 25.2 31.7 24.8 31.6 24.6S31.5 24.3 31.4 24.1C31.1 23.2 30.8 22.3 31 21.2 31.1 20.7 31.6 20.3 32.2 20.4 32.4 20.4 32.6 20.6 32.7 20.7 33.5 20.7 34.4 20.5 35.3 20.3 36 20.1 36.7 20 37.4 19.9 38.8 19.7 40.2 19.5 41.6 19.2 42.5 19 43.4 18.9 44.3 18.7 44.9 18.6 45.6 18.5 46.3 18.3 48.2 17.9 50.3 17.4 52.2 17.7 52.7 17.8 53 18.2 53 18.7 53 20 53.5 21.7 54.3 24 54.5 24.5 54.3 25 53.9 25.2 52.5 26 50.5 26.4 48.8 26.7 48.2 26.8 47.6 26.9 47 27.1 45.2 27.5 43.4 27.7 41.6 27.9 39.7 28.1 37.9 28.2 36.2 28.7 36 28.8 35.8 28.8 35.6 28.9 35.2 29.1 34.7 29.3 34.1 29.3M33.1 22.7C33.2 22.9 33.2 23.2 33.3 23.5 33.4 23.7 33.4 23.9 33.5 24.1 33.6 24.4 33.7 24.8 33.8 25.3S34.1 26.9 34.3 27.4C34.5 27.4 34.8 27.3 35 27.2 35.3 27.1 35.5 27 35.8 26.9 37.7 26.4 39.6 26.2 41.5 26 43.3 25.8 45 25.7 46.6 25.3 47.2 25.2 47.8 25 48.5 24.9 49.8 24.7 51.2 24.4 52.2 24 51.8 22.8 51.3 21.2 51.1 19.8 49.8 19.8 48.2 20.1 46.8 20.4 46 20.6 45.3 20.7 44.7 20.8 43.8 20.9 43 21.1 42.1 21.3 40.7 21.6 39.2 21.8 37.8 22 37.2 22.1 36.6 22.2 35.9 22.4 34.9 22.5 34 22.7 33.1 22.7" fill="#ffffff" data-fill-palette-color="accent"></path><path d="M32.4 22.7C32 22.7 31.6 22.5 31.5 22.1 30.3 19.1 29.9 15 32.4 12.6 34 11.1 37 10.7 38.9 10.4 42.6 9.9 45.4 10.1 47.9 13.1 49.6 15.2 50.6 16.5 51.6 19 51.8 19.5 51.6 20.1 51 20.3 50.5 20.5 49.9 20.3 49.7 19.7 48.7 17.4 47.9 16.2 46.3 14.3 44.4 12.1 42.4 11.9 39.1 12.3 37.4 12.5 34.9 12.9 33.7 14 31.9 15.7 32.4 19 33.3 21.3 33.5 21.8 33.3 22.4 32.7 22.6 32.6 22.7 32.5 22.7 32.4 22.7" fill="#ffffff" data-fill-palette-color="accent"></path><path d="M46.6 34.7C46.1 34.7 45.6 34.7 45.1 34.6 44.5 34.6 44.1 34.1 44.2 33.5 44.2 32.9 44.7 32.5 45.3 32.6 48.2 32.8 49 32.3 49.3 32.1 49.4 32 49.4 31.9 49.4 31.7 49.4 31.2 48.2 30.3 47.6 29.8 47.5 29.7 47.4 29.6 47.2 29.5 46.7 29.6 46.1 29.2 46 28.7 45.9 28.1 46.2 27.7 46.4 27.5 46.5 27.4 47 27.1 47.6 27.3 47.8 27.3 47.9 27.4 48 27.5 48.2 27.7 48.5 27.9 48.8 28.2 49.9 29.1 51.3 30.1 51.4 31.5 51.5 32.3 51.2 33 50.7 33.5 49.9 34.3 48.6 34.7 46.6 34.7" fill="#ffffff" data-fill-palette-color="accent"></path><path d="M38.3 33.3C36.3 33.3 34.8 31.9 34.4 30.4 33.9 28.5 34.8 26.8 36.7 25.9 37.2 25.7 37.8 25.9 38 26.4S38 27.5 37.5 27.7C36.5 28.2 36 29 36.3 29.9 36.5 30.7 37.3 31.5 38.5 31.3 39.7 31.2 40.8 30.5 42 29.8 43.1 29.1 44.2 28.5 45.5 28.2 46.7 27.9 47.2 28.2 47.9 28.6 48.1 28.7 48.3 28.9 48.7 29.1L49 29.2C50.1 29.8 50.8 30.1 51.5 29.8 51.9 29.6 52.1 29.3 52.2 28.8 52.4 27.9 52 26.6 51.4 25.7 50.9 25.7 50.5 25.4 50.4 24.9 50.3 24.3 50.6 23.9 50.7 23.7 50.9 23.5 51.2 23.3 51.8 23.4 52 23.4 52.2 23.5 52.3 23.7 53.4 24.9 54.4 27.2 54.1 29.2 53.9 30.3 53.3 31.1 52.3 31.6 50.7 32.4 49.1 31.6 48 31L47.7 30.9C47.2 30.7 46.9 30.5 46.7 30.3 46.5 30 46.5 30 46 30.1 45 30.3 44.1 30.9 43.1 31.5 41.8 32.3 40.4 33.1 38.8 33.3z" fill="#ffffff" data-fill-palette-color="accent"></path><path d="M39.4 30.2C38.9 30.2 38.5 29.9 38.4 29.4S38.5 28.4 39 28.2L39.4 28C39.8 27.8 40.3 27.6 40.7 27.5 41.2 27.4 41.8 27.7 41.9 28.2S41.7 29.3 41.2 29.4C41 29.5 40.8 29.5 40.6 29.6 40.4 29.9 40.1 30 39.8 30H39.5C39.5 30.2 39.4 30.2 39.4 30.2" fill="#ffffff" data-fill-palette-color="accent"></path><path d="M50.2 28.7C50.1 28.7 49.9 28.7 49.8 28.6 49.6 28.5 49.4 28.4 49.3 28.3 49.2 28.3 49.1 28.2 49 28.2 48.6 28.5 48 28.4 47.6 28S47.3 27 47.7 26.6C48.7 25.7 49.7 26.3 50.2 26.6 50.3 26.7 50.4 26.7 50.5 26.8 51 27 51.2 27.6 51 28.1 51 28.4 50.6 28.7 50.2 28.7" fill="#ffffff" data-fill-palette-color="accent"></path><path d="M50.2 43.6C49.9 43.6 49.6 43.4 49.4 43.2 49.2 42.9 48.6 42.7 48 42.6 47.5 42.4 46.9 42.3 46.4 42 45.3 41.3 40.8 38.1 40.4 35.7 40.3 35.4 40.4 35.1 40.6 34.8 40.8 34.6 41.1 34.4 41.4 34.5 42.3 34.6 43.2 34.8 44.1 35 45.3 35.3 46.5 35.5 47.7 35.5 49.1 35.5 50.5 35.3 51.8 35 51 33.8 50.4 32.5 50.4 31.5 50.4 30.9 50.9 30.5 51.4 30.5 52 30.5 52.4 31 52.4 31.5S53 33.2 54.2 34.9L54.3 35C54.5 35.3 54.5 35.6 54.4 35.9S54 36.4 53.7 36.5C51.9 37 49.9 37.4 47.7 37.4 46.2 37.4 44.9 37.1 43.7 36.8 43.6 36.8 43.5 36.7 43.3 36.7 44.5 38 46.3 39.5 47.3 40.1 47.6 40.3 48 40.4 48.4 40.5 49.3 40.8 50.3 41 50.9 41.9 51.2 42.4 51.1 43 50.6 43.3 50.6 43.5 50.4 43.6 50.2 43.6" fill="#ffffff" data-fill-palette-color="accent"></path><path d="M44.8 47.7C41.8 47.7 38.5 46.3 36.9 44.1 36.6 43.6 36.7 43 37.1 42.7 37.6 42.4 38.2 42.5 38.5 42.9 40 45.1 44.2 46.3 46.7 45.4 48.1 44.9 48.8 43.7 48.6 41.9 48.6 41.5 48.7 41.1 49.1 40.9 49.4 40.7 49.9 40.7 50.2 41 50.8 41 51.2 41.4 51.2 41.9 51.2 42.3 51 42.7 50.6 42.9 50.5 45 49.3 46.5 47.4 47.2 46.6 47.5 45.7 47.7 44.8 47.7" fill="#ffffff" data-fill-palette-color="accent"></path><path d="M33 35.1C30.9 35.1 28.4 33.9 27.6 32.3 27.3 31.8 26.7 30.1 28.9 28.6 29.7 28.1 32 27.7 33.2 28.3 34 28.7 34.2 29.3 34.2 29.6 34.3 30.1 33.9 30.6 33.3 30.7 32.8 30.7 32.4 30.5 32.3 30 31.8 29.8 30.4 30 30 30.2 29.1 30.8 29.3 31.1 29.4 31.3 30 32.4 32.6 33.4 33.8 32.9 34.3 32.7 34.9 33 35.1 33.5S35 34.6 34.5 34.8C34.1 35 33.6 35.1 33 35.1" fill="#ffffff" data-fill-palette-color="accent"></path><path d="M30.9 45.1C30.6 45.1 30.3 45 30.1 44.8 29.7 44.4 29.8 43.8 30.2 43.4 32 41.9 32.2 39.4 32.3 36.8 32.4 35.8 32.4 34.8 32.6 33.9 32.7 33.4 33.1 33.1 33.5 33.1S34.2 33.2 34.5 33.5C34.6 33.7 34.9 34 34.8 34.6 34.8 34.9 34.6 35.1 34.4 35.2 34.3 35.8 34.3 36.4 34.3 37 34.1 39.8 33.9 42.9 31.5 45 31.3 45 31.1 45.1 30.9 45.1" fill="#ffffff" data-fill-palette-color="accent"></path><path d="M34.7 47.7C34.5 47.7 34.4 47.7 34.2 47.6 33.6 47.3 32.9 46.8 32.2 46.4 31.6 46 30.8 45.4 30.4 45.3 29.9 45.1 29.6 44.6 29.8 44 30 43.5 30.5 43.2 31.1 43.4S32.5 44.1 33.4 44.7C34 45.1 34.6 45.6 35.1 45.8 35.6 46.1 35.8 46.7 35.5 47.1 35.5 47.5 35.1 47.7 34.7 47.7" fill="#ffffff" data-fill-palette-color="accent"></path><path d="M34.7 48.3C34.6 48.3 34.5 48.3 34.3 48.2 33.8 48 33.5 47.4 33.7 46.9 33.9 46.3 34.2 45.8 34.5 45.3 34.9 44.5 35.3 43.8 35.4 43 35.5 42.5 36 42.1 36.5 42.1 37 42.2 37.4 42.7 37.4 43.2 37.3 44.4 36.7 45.4 36.2 46.3 35.9 46.8 35.7 47.2 35.5 47.7 35.5 48.1 35.1 48.3 34.7 48.3" fill="#ffffff" data-fill-palette-color="accent"></path><path d="M38.9 27.5C38.6 27.5 38.3 27.4 38.1 27.1 37.2 26 37 23.9 36.8 21.9 36.8 21.5 36.7 21.2 36.7 21 36.6 20.5 36.9 19.9 37.5 19.8 38 19.7 38.6 20 38.7 20.6 38.7 20.8 38.8 21.2 38.8 21.7 38.9 22.8 39.1 25.1 39.7 25.8 40 26.2 40 26.9 39.5 27.2 39.3 27.4 39.1 27.5 38.9 27.5" fill="#ffffff" data-fill-palette-color="accent"></path><path d="M41.9 26.9C41.5 26.9 41.1 26.6 40.9 26.2 40.6 25.2 40.4 24.2 40.3 23.3 40.2 22.7 40.1 22.2 40 21.6 40 21.4 39.9 21.2 39.9 21V20.8L39.8 20.7C39.4 20.3 39.4 19.7 39.7 19.3S40.5 18.8 40.9 18.9C41.7 19.1 41.8 19.9 41.9 20.6 41.9 20.8 42 21 42 21.1L42.3 22.9C42.4 23.8 42.6 24.7 42.9 25.5 43.1 26 42.8 26.6 42.3 26.8 42.1 26.9 42 26.9 41.9 26.9" fill="#ffffff" data-fill-palette-color="accent"></path><path d="M46.4 26.6C45.9 26.6 45.4 26.2 45.4 25.7 45.1 21.6 44.5 20.1 44.2 19.8 43.8 19.4 43.8 18.8 44.1 18.4 44.5 18 45.1 18 45.5 18.3S46.9 19.5 47.3 25.5C47.4 26.1 47 26.5 46.4 26.6" fill="#ffffff" data-fill-palette-color="accent"></path><path d="M48.5 24.8C48.1 24.8 47.7 24.6 47.6 24.2 47 22.8 46.4 20.6 46.6 18.6 46.7 18.1 47.1 17.6 47.7 17.7 48.2 17.8 48.6 18.2 48.6 18.8 48.5 20.1 48.8 21.9 49.4 23.4 49.6 23.9 49.4 24.5 48.9 24.7 48.7 24.8 48.6 24.8 48.5 24.8" fill="#ffffff" data-fill-palette-color="accent"></path><path d="M41.5 63.7C41.2 63.7 40.9 63.6 40.7 63.5 40.4 63.3 40.2 63 40.2 62.6 40.2 62 38.7 60.9 38 60.4 37.5 60 37 59.7 36.7 59.3 36.4 59 36 58.7 35.6 58.3 34.5 57.4 33.3 56.3 32.8 55.3 32 53.4 32.3 51 32.6 48.9 32.7 48 32.8 47.2 32.9 46.5 32.9 45.9 33.3 45.5 33.9 45.5S34.9 46 34.9 46.5C34.9 47.3 34.8 48.2 34.6 49.1 34.3 51 34.1 53.1 34.6 54.5 34.9 55.1 36 56.1 36.8 56.8 37.3 57.2 37.7 57.6 38 57.9 38.2 58.1 38.7 58.5 39.1 58.8 40.2 59.6 41.4 60.5 41.9 61.6 42.8 61.3 44.5 60.2 47 58.3 47.5 57.9 47.9 57.6 48.1 57.5 48.2 57.4 48.3 57.3 48.5 57.2 49.3 56.5 50.5 55.6 51.6 55.9 52 56 52.3 56.3 52.3 56.7 52.4 57.3 52.1 57.9 51.6 58.3 51.2 58.5 50.8 58.5 50.5 58.2 50.2 58.4 49.9 58.6 49.8 58.7 49.6 58.9 49.4 59 49.3 59.1 49.1 59.2 48.7 59.5 48.3 59.8 45 62.3 42.9 63.7 41.5 63.7" fill="#ffffff" data-fill-palette-color="accent"></path><path d="M24.9 50.4H24.7C24.2 50.3 23.8 49.7 24 49.2 24.4 47.7 25.8 46.7 27 45.8 27.7 45.3 28.3 44.8 28.7 44.4 28.8 44.2 29 44.1 29.3 44.1 29.9 44 30.3 44.2 30.4 44.4 30.6 44.6 30.8 44.9 30.7 45.6 30.6 46.1 30.1 46.5 29.6 46.4 29.2 46.8 28.7 47.2 28.2 47.5 27.2 48.2 26.1 49 25.9 49.8 25.8 50.1 25.4 50.4 24.9 50.4" fill="#ffffff" data-fill-palette-color="accent"></path><path d="M32.4 71C32.2 71 31.9 70.9 31.7 70.8 30.8 70 30.9 68.4 31 66.9 31 66.5 31.1 66.1 31 65.9 30.9 64.5 31 63.1 31 61.9V60C31 59.4 31.5 59 32 59 32.6 59 33 59.5 33 60V61.8C33 63.1 32.9 64.4 33 65.7V67C33 67.6 32.9 69 33.1 69.3 33.5 69.7 33.5 70.3 33.2 70.7 33 70.9 32.7 71 32.4 71" fill="#ffffff" data-fill-palette-color="accent"></path><path d="M26.9 76.7C26.5 76.7 26.2 76.5 26 76.1 25.5 75 25.5 74 26 73.1 25.6 73 25.3 72.8 25.2 72.4 25 71.9 25.3 71.3 25.8 71.1 29.8 69.7 34.2 68.5 40.1 67.2 40.4 67.1 40.7 67.1 41.1 66.9 43.9 66.1 46.6 65.6 48 66.8 49.2 67.8 49.2 68.8 49.1 69.5 48.4 72.3 42.2 73.8 42.2 73.8 40.1 74.3 38 74.6 35.9 74.9 33 75.3 30 75.7 27.2 76.6 27.1 76.7 27 76.7 26.9 76.7M29.8 71.9C29.8 72.2 29.6 72.5 29.3 72.6 28.1 73.2 27.7 73.8 27.7 74.3 30.3 73.6 33.1 73.2 35.7 72.8 37.7 72.5 39.8 72.2 41.8 71.8 43.6 71.4 47 70 47.2 69 47.3 68.8 47 68.5 46.8 68.3 46.1 67.7 42.9 68.5 41.7 68.9 41.3 69 40.9 69.1 40.6 69.2 36.3 70.1 32.8 71 29.8 71.9" fill="#ffffff" data-fill-palette-color="accent"></path><path d="M22.4 81.7C20.3 81.7 18.1 81.3 16.5 81L16 80.9C13.4 80.4 10.6 79.6 9.2 77.2S7.4 71.5 7.1 68.8L7 68C5.9 58.8 6.9 51.4 9.9 45.9 11.2 43.6 13.7 40.8 16.8 40.2 18.7 39.8 20.7 40.2 22.4 41.5 26.2 44.3 26.5 49.5 26.7 53.7V54.6C26.8 56.3 26.9 58 27 59.8 27.3 64.7 27.5 69.8 27.9 74.8 27.9 74.9 28 75 28 75.2V75.9C28 77.7 28 80.4 25.5 81.3 24.6 81.5 23.5 81.7 22.4 81.7M18.2 42C17.9 42 17.5 42 17.2 42.1 15.1 42.6 13 44.4 11.6 46.9 8.9 52 7.9 59.2 9 67.8V68.5C9.3 71 9.6 74.1 10.9 76.1 11.9 77.8 14.1 78.4 16.4 78.8L16.8 78.9C19.2 79.3 22.8 80 24.8 79.2 25.9 78.8 26 77.5 26 75.6V75.5C25.6 70.2 25.3 64.9 25 59.7 24.9 58 24.8 56.3 24.7 54.5V53.6C24.5 49.8 24.3 45.1 21.2 42.9 20.3 42.4 19.3 42 18.2 42" fill="#ffffff" data-fill-palette-color="accent"></path><path d="M29.7 85.2C26.8 85.2 23.9 85 21.2 84.7 20.7 84.6 20.3 84.1 20.3 83.6 20.4 83.1 20.9 82.7 21.4 82.7 26 83.2 31 83.6 36.2 82.8L36.7 82.7C37.9 82.5 40.3 82.2 41 81.4 41.5 80.9 41.6 78.2 41.2 77.6 40.6 76.9 39.1 77.1 37.9 77.3 37.5 77.4 37.2 77.4 36.9 77.4 35.9 77.5 34.9 77.5 34 77.5 31.6 77.5 29.6 77.6 27.5 78.8 27 79.1 26.4 78.9 26.1 78.5 25.8 78 26 77.4 26.4 77.1 28.9 75.6 31.4 75.6 33.9 75.5 34.8 75.5 35.7 75.5 36.6 75.4 36.9 75.4 37.2 75.3 37.5 75.3 39.1 75.1 41.4 74.7 42.7 76.3 43.8 77.7 43.5 81.5 42.4 82.7 41.3 83.8 39.1 84.2 37 84.6L36.6 84.7C34.2 85.1 31.9 85.2 29.7 85.2" fill="#ffffff" data-fill-palette-color="accent"></path><path d="M48.5 86.8C48 86.8 47.6 86.4 47.5 85.9 47.3 84.2 47.7 82.7 48.1 81.1 48.5 79.7 48.8 78.4 48.7 77V76.1C48.7 75.5 48.6 74.1 48.4 73.8 47.2 72.4 42.5 74.1 40.4 74.8 40.2 74.9 40 75 39.8 75 39.6 75.3 39.3 75.4 38.9 75.4H38.5C38 75.4 37.6 75 37.6 74.5S37.9 73.6 38.3 73.5 39.2 73.2 39.7 73C42.9 71.9 47.8 70.2 49.8 72.6 50.5 73.4 50.6 74.9 50.6 76.1V76.9C50.8 78.6 50.4 80.1 50 81.7 49.6 83.1 49.3 84.4 49.4 85.7 49.5 86.2 49.1 86.7 48.5 86.8" fill="#ffffff" data-fill-palette-color="accent"></path><path d="M44 88.3C43.8 88.3 43.6 88.2 43.5 88.1 43 87.8 42.9 87.2 43.2 86.7 43.4 86.4 43.4 85.7 43.4 85.1V84C43.5 83.3 43.6 82.5 43.8 81.8 44 80.8 44.2 79.8 44.2 78.8V78.1C43.8 78.2 43.4 78.2 43 78.2 42.2 78.3 41.4 78.3 41.1 78.6 40.7 79 40.1 79 39.7 78.6S39.3 77.6 39.7 77.2C40.5 76.4 41.8 76.3 42.9 76.2 43.6 76.1 44.3 76.1 44.7 75.9 45 75.7 45.3 75.7 45.6 75.9S46.1 76.3 46.1 76.7C46.2 77.4 46.2 78.1 46.2 78.9 46.1 80 45.9 81.1 45.8 82.1 45.7 82.8 45.5 83.5 45.5 84.2V85C45.5 85.9 45.5 86.9 45 87.7 44.6 88.1 44.3 88.3 44 88.3" fill="#ffffff" data-fill-palette-color="accent"></path><path d="M38.9 88.6C38.3 88.6 37.9 88.1 37.9 87.5 38 85.7 38.3 84.1 38.9 83 39.1 82.5 39.7 82.3 40.2 82.5S40.9 83.3 40.7 83.8C40.3 84.7 40 86 39.9 87.6 39.9 88.2 39.4 88.6 38.9 88.6" fill="#ffffff" data-fill-palette-color="accent"></path><path d="M34.7 88.9C34.5 88.9 34.4 88.9 34.2 88.8 33.7 88.5 33.6 87.9 33.8 87.4 34.1 86.9 34.2 86.3 34.4 85.7 34.6 84.9 34.8 83.9 35.4 83.1 35.6 82.8 35.9 82.7 36.2 82.7S36.8 82.9 37 83.2L37.3 83.6C37.6 84.1 37.5 84.7 37 85 36.9 85.1 36.7 85.1 36.6 85.1 36.5 85.4 36.4 85.8 36.3 86.2 36.1 87 36 87.7 35.5 88.5 35.4 88.7 35.1 88.9 34.7 88.9" fill="#ffffff" data-fill-palette-color="accent"></path><path d="M74.7 88C74.1 88 73.7 87.6 73.7 87 73.7 85.4 73.7 83.8 73.6 82.2 73.5 79 73.4 75.7 73.7 72.4 72.6 72.2 71.1 72.3 69.7 72.4 68.8 72.5 67.9 72.5 67.1 72.5 63.3 72.3 59.6 72.3 55.8 72.5 54.7 72.6 53.5 72.5 52.3 72.4 50.8 72.3 49.3 72.3 48 72.4 47.8 72.6 47.6 72.7 47.3 72.8 46.7 72.9 46.4 72.6 46.2 72.5 45.9 72.2 45.8 71.9 45.9 71.5S46.3 70.8 46.7 70.7C48.5 70.3 50.5 70.4 52.4 70.5 53.6 70.6 54.7 70.6 55.7 70.6 59.5 70.4 63.3 70.4 67.2 70.6 67.8 70.6 68.7 70.6 69.5 70.5 71.4 70.3 73.6 70.2 75.1 70.9 75.5 71.1 75.7 71.5 75.7 71.9 75.4 75.3 75.5 78.8 75.6 82.2 75.6 83.8 75.7 85.5 75.7 87.1 75.7 87.5 75.2 88 74.7 88" fill="#ffffff" data-fill-palette-color="accent"></path><path d="M75 72.5H72.9C72.4 72.5 71.9 72 71.9 71.5S72.3 70.5 72.9 70.5H73.6C76.5 70.6 79.5 70.4 82.5 70.3 83.5 70.3 84.5 70.2 85.5 70.2 86.4 70.2 87.3 70 88.3 69.9 89.7 69.7 91.1 69.5 92.6 69.6 93.2 69.6 93.6 70.1 93.5 70.7 93.5 71.3 93 71.7 92.4 71.6 91.1 71.5 89.9 71.7 88.5 71.9 87.5 72 86.5 72.2 85.5 72.2S83.5 72.3 82.5 72.3C80.2 72.4 77.6 72.5 75 72.5" fill="#ffffff" data-fill-palette-color="accent"></path><path d="M80.8 68.5C79.8 68.5 78.8 68.5 77.8 68.4 76.2 68.3 74.6 68.3 73 68.3H68.4C67.9 68.3 67.5 67.9 67.5 67.5 67.4 66.7 67.6 66 67.8 65.4 67.9 65.1 68 64.8 68 64.5 68.1 63.4 68.2 62.2 68.3 61 68.4 60 68.4 59 68.5 58.1 68.9 54.5 69.4 50.8 69.9 47.3L70 46.4 70.6 41.6C70.9 39.4 71.2 37.1 71.6 34.8 71.7 34 71.9 33.2 72.1 32.5 72.3 31.9 72.4 31.4 72.5 30.8 72.1 30.8 71.7 30.4 71.6 30 71.5 29.5 71.8 29 72.3 28.8 72.4 28.8 72.5 28.7 72.7 28.7 72.8 28.2 73 27.7 73.5 27.4S74.6 27.3 74.9 27.7C74.9 27.8 75 27.8 75 27.9 76.9 27.2 78.8 26.4 80.6 25.5 80.9 25.3 81.3 25.1 81.8 24.9 83.3 24.1 84.9 23.2 86.4 23.4 86.9 23.5 87.2 23.8 87.3 24.3 87.9 30.1 87.2 36 86.5 41.7 86.1 45.3 85.6 49 85.5 52.7 85.5 53.9 85.4 55 85.4 56.2 85.3 59.9 85.2 63.7 84.9 67.4 84.9 67.8 84.5 68.2 84.1 68.3 83 68.4 81.9 68.5 80.8 68.5M75 66.3C75.9 66.3 76.9 66.3 77.9 66.4 79.6 66.5 81.4 66.6 83 66.4 83.3 63 83.4 59.6 83.5 56.2 83.5 55 83.5 53.9 83.6 52.7 83.7 49 84.2 45.2 84.6 41.6 85.2 36.3 85.9 30.9 85.5 25.6 84.7 25.8 83.7 26.4 83 26.8 82.5 27.1 82.1 27.3 81.7 27.5 79.5 28.5 77.2 29.5 74.9 30.3V30.6C74.8 31.5 74.5 32.3 74.3 33.1 74.1 33.8 73.9 34.5 73.8 35.2 73.4 37.4 73.1 39.7 72.9 41.9 72.7 43.5 72.5 45.1 72.3 46.8L72.2 47.7C71.7 51.4 71.1 54.8 70.8 58.4 70.7 59.3 70.7 60.3 70.6 61.2 70.5 62.4 70.5 63.6 70.3 64.8L70 66C70 66.1 69.9 66.3 69.9 66.4H73.3C73.6 66.3 74.3 66.3 75 66.3" fill="#ffffff" data-fill-palette-color="accent"></path><path d="M80.9 64.5C80.2 64.5 79.4 64.3 78.8 64.1 78.5 64 78.1 63.9 77.8 63.9L77.2 63.8C75.7 63.6 74.2 63.3 72.9 63.8 72.6 63.9 72.3 63.9 72 63.7S71.6 63.2 71.6 62.9C71.5 61.1 71.8 59 72.1 57.1 72.2 56.2 72.4 55.3 72.5 54.5L72.7 52.3C73.1 48.7 73.4 45 74.2 41.4 74.4 40.5 74.5 39.7 74.5 38.8 74.6 37.9 74.7 37 74.9 36 75 35.6 75.1 35.1 75.2 34.6 74.8 34.7 74.4 34.5 74.1 34.2L73.9 33.9C73.6 33.5 73.7 32.9 74.2 32.5 74.8 32.1 75.4 31.8 76 31.5 76.2 31.3 76.5 31.1 76.8 31.2 77.2 31.1 77.5 30.9 77.9 30.8 78.3 30.6 78.8 30.5 79.2 30.3 79.3 30.2 79.5 30.1 79.7 30 80.6 29.5 81.6 29 82.6 29.3 83.1 29.4 83.9 29.7 83.9 30.8V31C84.1 31.7 84.1 32.6 84 33.5 84 33.8 83.9 34.2 84 34.4V35.1C84 36.6 84.1 38.1 84 39.7 83.9 43.2 83.6 46.8 83.2 50.2 82.8 54.5 82.3 59 82.4 63.4 82.4 63.9 82.1 64.3 81.6 64.4 81.5 64.4 81.2 64.5 80.9 64.5M74.6 61.5C75.6 61.5 76.6 61.7 77.5 61.8L78.1 61.9C78.4 62 78.8 62 79.2 62.1L80.4 62.4C80.4 58.2 80.8 54.1 81.2 50 81.5 46.6 81.9 43 82 39.6V34.4C82 34.1 82 33.7 82.1 33.3 82.1 32.7 82.2 31.9 82.1 31.6 82.1 31.5 82 31.3 82 31.2 81.7 31.3 81 31.6 80.7 31.8 80.4 31.9 80.2 32.1 80 32.2 79.6 32.4 79.1 32.6 78.6 32.7 78.3 32.8 78 32.9 77.7 33.1 77.6 33.8 77.4 34.4 77.2 35 77.1 35.5 76.9 36 76.8 36.5 76.6 37.3 76.6 38.2 76.5 39.1S76.3 41 76.1 42C75.4 45.5 75 49.2 74.7 52.7L74.5 54.9C74.4 55.7 74.3 56.6 74.1 57.6 73.9 59 73.6 60.5 73.6 61.8 73.9 61.5 74.3 61.5 74.6 61.5" fill="#ffffff" data-fill-palette-color="accent"></path><path d="M85.1 66.5C84.7 66.5 84.4 66.3 84.2 66 83.9 65.5 84.1 64.9 84.6 64.6 85.2 64.3 85.6 64.1 86 64 86.1 64 86.3 63.9 86.4 63.9 86.4 63.9 86.5 63.8 86.5 63.2 86.8 60.7 86.8 58.3 86.8 55.7V54.4C86.8 49.2 87.3 43.9 87.8 38.8L88.4 32.8V32.7C88.7 29.6 88.5 28.2 88.4 27.6 88 27.9 87.5 27.8 87.1 27.5 86.7 27.1 86.7 26.5 87.1 26.1 88 25.2 88.7 25.3 89.2 25.5 90.1 25.9 90.9 27.1 90.4 32.9 90.2 35 90 37 89.8 39 89.3 44.1 88.8 49.3 88.8 54.4V55.7C88.8 58.2 88.8 60.9 88.5 63.5 88.3 65.2 87.8 65.7 86.6 66 86.3 66.1 86 66.2 85.6 66.4 85.4 66.5 85.3 66.5 85.1 66.5" fill="#ffffff" data-fill-palette-color="accent"></path><path d="M88.9 62.6C88.4 62.6 87.9 62.5 87.3 62.2 86.8 62 86.6 61.3 86.9 60.9 87.1 60.4 87.8 60.2 88.2 60.5H88.3C88.4 58.8 88.5 57.1 88.5 55.4 88.6 52.9 88.6 50.3 89 47.8 89.1 47 89.2 46.2 89.4 45.4 89.8 42.7 90.3 39.9 90.1 37.5 90 36.2 90 36.1 88.7 36 88.4 36 88.1 35.8 87.9 35.6 87.5 35 87.7 34.5 87.8 34.3S88.3 33.7 89.1 33.8C89.4 33.8 89.6 33.9 89.7 34.1 91.5 34.4 91.9 35.6 92.1 37.3 92.3 39.9 91.8 43 91.4 45.6 91.3 46.4 91.1 47.2 91 48 90.7 50.4 90.6 53 90.5 55.4 90.4 57.5 90.4 59.6 90.2 61.7 90.2 62.2 89.8 62.5 89.4 62.6zM89 34.9L88.9 35.8z" fill="#ffffff" data-fill-palette-color="accent"></path><path d="M66.3 73.1C65.9 73.1 65.5 72.8 65.3 72.4 65.1 71.9 65.4 71.3 66 71.2 66.7 71 67.6 71 68.7 70.9 70.4 70.8 72.9 70.7 73.2 69.8 73.4 69.3 72.8 68.7 72.6 68.6 70.9 67.8 67.9 68.6 63.6 71 63.1 71.3 62.5 71.1 62.2 70.6S62.1 69.5 62.6 69.2C65.8 67.4 70.4 65.2 73.5 66.8 74.5 67.3 75.7 68.9 75.1 70.5 74.3 72.7 71.2 72.8 68.8 72.9 67.9 72.9 67.1 73 66.6 73.1z" fill="#ffffff" data-fill-palette-color="accent"></path><path d="M52.3 72.8C51.8 72.8 51.3 72.4 51.3 71.8 51.2 69.7 51.6 68.9 53.9 68.4 55.8 68 57.3 67.8 59 67.8 59.9 67.8 60.7 67.6 61.6 67.4S63.5 67 64.5 67C65 67 65.5 67.4 65.5 68V68.5C65.5 69.1 65.1 69.5 64.5 69.5 64.1 69.5 63.8 69.3 63.6 69.1 63.1 69.2 62.5 69.3 62 69.4 61 69.6 60 69.8 59 69.8 57.5 69.8 56 70 54.3 70.3 53.6 70.4 53.4 70.5 53.3 70.6S53.3 71.5 53.3 71.7C53.3 72.3 52.9 72.8 52.3 72.8 52.4 72.8 52.3 72.8 52.3 72.8" fill="#ffffff" data-fill-palette-color="accent"></path><path d="M50 39.8C49.8 39.8 49.6 39.8 49.5 39.7 49 39.4 48.7 39 48.5 38.7 48.1 39.3 47.4 39.9 46.4 39.8 46 39.8 45.7 39.5 45.6 39.2 45.3 38.4 45.3 37.9 45.3 37.4V36.6C45.2 36.1 45.6 35.5 46.1 35.4S47.2 35.7 47.3 36.2C47.4 36.5 47.4 36.8 47.4 37 47.5 36.8 47.7 36.6 47.8 36.5 48.1 36.1 48.7 36 49.1 36.3S49.8 36.9 50 37.2V37C49.9 36.5 50.2 36.1 50.6 35.9S51.5 35.8 51.8 36.2C52.2 36.7 52.8 37.2 53 37.2S53.4 37.1 53.4 37 53.4 36.8 53.3 36.8C52.9 36.4 53 35.8 53.4 35.4S54.4 35.1 54.8 35.5C55.5 36.2 55.6 37.2 55.2 38 54.8 38.9 53.8 39.4 52.8 39.2 52.5 39.2 52.1 39 51.8 38.8 51.6 39.3 51.2 39.6 50.7 39.9 50.3 39.8 50.2 39.8 50 39.8" fill="#ffffff" data-fill-palette-color="accent"></path><path d="M79.2 71.4C78.4 71.4 77.7 71.4 76.9 71.3 76.3 71.3 75.8 71.3 75.2 71.2 74.6 71.2 74.2 70.7 74.2 70.2 74.2 69.6 74.6 69.2 75.2 69.2S76.4 69.2 77 69.3C78 69.3 78.9 69.4 79.9 69.4 79.9 69.3 79.8 69.2 79.8 69.2 79.7 68.9 79.5 68.4 79.3 68.3 78.7 68.3 78.3 67.8 78.4 67.2 78.4 66.6 78.9 66.2 79.5 66.3 80.8 66.4 81.3 67.6 81.7 68.4 81.9 68.8 82.1 69.3 82.3 69.4 82.7 69.6 82.8 70 82.8 70.4 82.7 70.8 82.4 71.1 82 71.2 81 71.4 80.1 71.4 79.2 71.4" fill="#ffffff" data-fill-palette-color="accent"></path><path d="M15.6 83.3C14.9 83.3 14.2 83.2 13.5 82.7 13.3 82.5 13.1 82.2 13.1 81.9 13.1 81.4 13.2 80.9 13.3 80.5S13.5 79.7 13.4 79.3C13.3 78.8 13.8 78.3 14.3 78.2 14.9 78.1 15.3 78.6 15.4 79.1 15.5 79.8 15.3 80.4 15.2 80.9 15.2 81 15.2 81.1 15.1 81.2H15.9C17.4 81.2 19 80.9 20.5 80.6 21.5 80.4 22.5 80.3 23.5 80.1 26.2 79.8 29.1 79.6 32.2 79.6 32.7 79.6 33.2 80 33.2 80.6S32.8 81.6 32.2 81.6C29.2 81.6 26.4 81.8 23.7 82.1 23 82.3 22 82.5 21 82.7 19.4 83 17.7 83.3 16.1 83.3z" fill="#ffffff" data-fill-palette-color="accent"></path><path d="M27.3 88H27.2C26.7 87.9 26.3 87.4 26.3 86.9L26.4 86.3C26.5 85.6 26.6 85 26.6 84.3 26.6 83.7 27 83.3 27.6 83.3S28.6 83.8 28.6 84.3C28.6 85.1 28.5 85.8 28.4 86.6L28.3 87.1C28.2 87.6 27.8 88 27.3 88" fill="#ffffff" data-fill-palette-color="accent"></path><path d="M42.3 69.6C42 69.6 41.8 69.6 41.6 69.5 41.3 69.4 41 69.1 41 68.8 40.9 68.6 40.7 68.3 40.6 68.2L40.5 68.1C39.8 67.3 38.9 66.6 38 65.9 37.3 65.3 36.5 64.8 35.9 64.1L35.2 63.4C33.9 62.1 32.4 60.7 31.4 59.1 31.1 58.6 31.2 58 31.7 57.7S32.8 57.5 33.1 58C34 59.4 35.4 60.8 36.7 62L37.4 62.7C38 63.3 38.6 63.8 39.4 64.3 40.4 65.1 41.4 65.9 42.2 66.9 42.2 67 42.3 67 42.3 67.1V67.2C42.5 67.4 42.6 67.6 42.7 67.8 43.2 67.7 44.3 67.2 46.7 65.4 46.9 65.3 47.1 65.1 47.2 65 47.7 64.7 48.2 64.2 48.7 63.8 49.9 62.8 51.3 61.6 52.7 61.1 52.5 60.2 51.8 58.8 51.4 58 51.2 57.6 51 57.3 50.9 57 50.8 56.8 50.8 56.5 50.9 56.2S51.2 55.7 51.4 55.6C51.8 55.4 52.2 55.4 52.7 55.6S53.5 56.4 53.3 56.9C53.3 57 53.3 57 53.2 57.1 54.1 58.7 55.1 60.6 54.7 62.1 54.6 62.5 54.3 62.8 53.9 62.8 52.7 63.1 51.3 64.3 50 65.3 49.4 65.8 48.9 66.2 48.4 66.6 48.3 66.7 48.1 66.8 47.9 66.9 45.8 68.2 43.8 69.6 42.3 69.6" fill="#ffffff" data-fill-palette-color="accent"></path><path d="M33.6 51.2C33.4 51.2 33.2 51.2 33.1 51.1 31.9 50.4 30.7 49.2 30 48.3 29.8 48 29.6 47.8 29.5 47.5 29.4 47.4 29.4 47.3 29.3 47.2 29.2 47.3 29.1 47.5 28.9 47.5 28.4 47.8 27.8 47.7 27.5 47.2 27.2 46.8 27.3 46.2 27.7 45.9 27.5 45.5 27.6 45.1 27.9 44.8 28.1 44.6 28.3 44.5 28.5 44.5 29.1 43.2 30 41.7 31.6 41.8 32.3 41.8 32.8 42.3 33.6 43 33.7 43.1 33.9 43.3 34 43.3L34.5 43.6C35.2 44.1 35.9 44.6 36.6 45 36.8 45.1 37 45.3 37.1 45.6S37.1 46.2 37 46.4C36.1 47.9 35.3 49.4 34.6 50.7 34.5 50.9 34.3 51.1 34 51.2zM30.4 45.3C30.8 45.7 31 46.1 31.2 46.4 31.3 46.6 31.4 46.8 31.6 47 32 47.5 32.6 48.2 33.3 48.7 33.7 47.9 34.2 47 34.7 46.2 34.2 45.9 33.7 45.5 33.2 45.2L32.7 44.9 32.2 44.4C32 44.2 31.6 43.9 31.4 43.8 31.1 43.8 30.7 44.7 30.4 45.3" fill="#ffffff" data-fill-palette-color="accent"></path></svg></g></svg></g><g></g></svg></g><defs></defs></svg><rect width="395.5199999999999" height="141.35584554539545" fill="none" stroke="none" visibility="hidden"></rect></g></svg></g></svg>